# xmcd
#
# Track frame offsets:
# 150
# 11537
# 25169
# 41194
# 53253
# 67500
# 80549
# 92732
# 106219
# 119301
# 132071
# 145772
# 160135
# 172518
# 186594
# 197099
# 210244
# 224334
#
# Disc length: 3126 seconds
#
# Revision: 1
# Processed by: cddbd v1.5.1PL0 Copyright (c) Steve Scherf et al.
# Submitted via: Axialis_AX_CDPlayer 2.6
#
DISCID=e20c3412
DTITLE=Various Artist - Millenium Collection - Blues Legends -(CD1)
DYEAR=1900
DGENRE=Blues
TTITLE0=Champion Jack Dupree - Chain Gang Blues
TTITLE1=T-bone Walker - Call It Stormy Monday
TTITLE2=Muddy Waters - Country Blues
TTITLE3=Charlie Patton - Revue Man Blues
TTITLE4=John Lee Hooker - Henrys Swing Club
TTITLE5=Joe Turner - Miss Brown Blues
TTITLE6=Big Joe Turner - Rebecca
TTITLE7=Big Bill And The Thomps - Big Bill Blues
TTITLE8=Billy Holiday - St. Louis Blues
TTITLE9=J. Yancey - Yancey Stomp
TTITLE10=Leadbelly - Where Did You Sleep Last Night
TTITLE11=John Lee Hooker - Sally Mae
TTITLE12=Sonny Boy Williams - I Win The War Blues
TTITLE13=Kakomo Arnold - Milk Cow Blues
TTITLE14=Lowell Fulson - San Francisco Blues
TTITLE15=Leroy Carr - Mean Mistreater Mama
TTITLE16=John Lee Hooker - Stopm Boogie
TTITLE17=Muddy Waters - Mean Red Spider
EXTD=
EXTT0=
EXTT1=
EXTT2=
EXTT3=
EXTT4=
EXTT5=
EXTT6=
EXTT7=
EXTT8=
EXTT9=
EXTT10=
EXTT11=
EXTT12=
EXTT13=
EXTT14=
EXTT15=
EXTT16=
EXTT17=
PLAYORDER=
